<svg xmlns="http://www.w3.org/2000/svg" xmlns:xlink="http://www.w3.org/1999/xlink" width="500" zoomAndPan="magnify" viewBox="0 0 375 374.999991" height="500" preserveAspectRatio="xMidYMid meet" version="1.0"><defs><g/><clipPath id="73db572843"><path d="M 40 166 L 77.25 166 L 77.25 208 L 40 208 Z M 40 166 " clip-rule="nonzero"/></clipPath><clipPath id="ade5a95a30"><path d="M 297 167 L 335 167 L 335 209 L 297 209 Z M 297 167 " clip-rule="nonzero"/></clipPath><clipPath id="8ebdcb5285"><path d="M 336.457031 165.082031 L 337.5 210.066406 L 297.761719 210.988281 L 296.71875 166 Z M 336.457031 165.082031 " clip-rule="nonzero"/></clipPath><clipPath id="d1ab6a0424"><path d="M 336.457031 165.082031 L 337.5 210.066406 L 297.761719 210.988281 L 296.71875 166 Z M 336.457031 165.082031 " clip-rule="nonzero"/></clipPath><clipPath id="2d785dc021"><path d="M 336.457031 165.082031 L 337.5 210.066406 L 297.761719 210.988281 L 296.71875 166 Z M 336.457031 165.082031 " clip-rule="nonzero"/></clipPath></defs><g fill="#000000" fill-opacity="1"><g transform="translate(64.411933, 163.833007)"><g/></g></g><g fill="#000000" fill-opacity="1"><g transform="translate(70.159948, 143.735766)"><g/></g></g><g fill="#000000" fill-opacity="1"><g transform="translate(77.911811, 125.481323)"><g><path d="M -2.609375 -3.703125 L -0.875 -7.1875 L -21.40625 -22.75 L -24.3125 -20.15625 L -27.765625 -22.765625 L -10.515625 -45.53125 L -2.671875 -39.59375 L -6 -35.203125 L -9.625 -37.515625 L -16.6875 -28.1875 L -8.8125 -22.234375 L -1.21875 -32.25 L 3.203125 -28.890625 L -4.390625 -18.875 L 3.46875 -12.921875 L 6.375 -15.546875 L 9.8125 -12.9375 L 0.828125 -1.09375 Z M -2.609375 -3.703125 "/></g></g></g><g fill="#000000" fill-opacity="1"><g transform="translate(100.920701, 96.247087)"><g><path d="M -6.140625 -39.4375 C -2.796875 -41.769531 0.351562 -42.832031 3.3125 -42.625 C 6.28125 -42.414062 8.703125 -40.96875 10.578125 -38.28125 C 11.617188 -36.789062 12.117188 -35.222656 12.078125 -33.578125 C 12.046875 -31.941406 11.5 -30.25 10.4375 -28.5 C 12.519531 -29.195312 14.351562 -29.210938 15.9375 -28.546875 C 17.53125 -27.890625 18.945312 -26.675781 20.1875 -24.90625 L 21.21875 -23.421875 C 21.675781 -22.765625 22.160156 -22.34375 22.671875 -22.15625 C 23.179688 -21.976562 23.753906 -22.066406 24.390625 -22.421875 L 25.1875 -22.828125 L 27.671875 -19.265625 L 24.609375 -17.140625 C 22.679688 -15.796875 20.960938 -15.367188 19.453125 -15.859375 C 17.953125 -16.359375 16.628906 -17.429688 15.484375 -19.078125 L 14.328125 -20.75 C 13.328125 -22.175781 12.160156 -23.03125 10.828125 -23.3125 C 9.503906 -23.601562 8.128906 -23.285156 6.703125 -22.359375 L 1.875 -18.984375 L 7.28125 -11.21875 L 10.859375 -12.8125 L 13.328125 -9.28125 L 1.125 -0.78125 L -1.34375 -4.3125 L 1.375 -7.109375 L -13.34375 -28.234375 L -16.90625 -26.671875 L -19.375 -30.21875 L -16.234375 -32.40625 Z M -1.296875 -23.546875 L 2.78125 -26.40625 C 4.425781 -27.539062 5.414062 -28.742188 5.75 -30.015625 C 6.082031 -31.296875 5.789062 -32.597656 4.875 -33.921875 C 3.957031 -35.242188 2.816406 -36.007812 1.453125 -36.21875 C 0.0976562 -36.4375 -1.375 -35.992188 -2.96875 -34.890625 L -7.15625 -31.96875 Z M -1.296875 -23.546875 "/></g></g></g><g fill="#000000" fill-opacity="1"><g transform="translate(134.607224, 73.845786)"><g><path d="M 28.015625 -26.390625 C 29.460938 -21.335938 29.207031 -16.742188 27.25 -12.609375 C 25.300781 -8.484375 21.988281 -5.75 17.3125 -4.40625 C 12.65625 -3.082031 8.421875 -3.660156 4.609375 -6.140625 C 0.804688 -8.617188 -1.816406 -12.382812 -3.265625 -17.4375 L -3.421875 -17.96875 C -4.859375 -22.988281 -4.617188 -27.5625 -2.703125 -31.6875 C -0.796875 -35.820312 2.484375 -38.554688 7.140625 -39.890625 C 11.816406 -41.234375 16.078125 -40.660156 19.921875 -38.171875 C 23.773438 -35.691406 26.421875 -31.941406 27.859375 -26.921875 Z M 20.9375 -25 C 19.914062 -28.5625 18.34375 -31.242188 16.21875 -33.046875 C 14.101562 -34.847656 11.59375 -35.332031 8.6875 -34.5 C 5.78125 -33.664062 3.925781 -31.9375 3.125 -29.3125 C 2.332031 -26.695312 2.445312 -23.59375 3.46875 -20 L 3.640625 -19.421875 C 4.679688 -15.785156 6.242188 -13.0625 8.328125 -11.25 C 10.410156 -9.445312 12.894531 -8.957031 15.78125 -9.78125 C 18.707031 -10.625 20.585938 -12.363281 21.421875 -15 C 22.253906 -17.644531 22.148438 -20.785156 21.109375 -24.421875 Z M 20.9375 -25 "/></g></g></g><g fill="#000000" fill-opacity="1"><g transform="translate(173.9233, 62.455882)"><g><path d="M 38.375 -22.96875 L 38.234375 -23 L 26.125 2.515625 L 21.328125 2.046875 L 14.34375 -25.203125 L 14.1875 -25.1875 L 13.359375 -9.453125 L 12.8125 -3.84375 L 16.5625 -2.734375 L 16.15625 1.5625 L 1.375 0.125 L 1.78125 -4.171875 L 5.65625 -4.53125 L 8.125 -30.15625 L 4.40625 -31.28125 L 4.8125 -35.578125 L 8.609375 -35.203125 L 17.96875 -34.296875 L 24.53125 -7.109375 L 24.671875 -7.109375 L 36.375 -32.53125 L 49.578125 -31.265625 L 49.171875 -26.96875 L 45.265625 -26.578125 L 42.796875 -0.953125 L 46.546875 0.140625 L 46.140625 4.4375 L 31.359375 3.015625 L 31.765625 -1.28125 L 35.640625 -1.640625 L 36.1875 -7.25 Z M 38.375 -22.96875 "/></g></g></g><g fill="#000000" fill-opacity="1"><g transform="translate(226.834224, 71.042426)"><g/></g></g><g fill="#000000" fill-opacity="1"><g transform="translate(245.100567, 76.788701)"><g><path d="M 44.6875 2.078125 L 44.578125 1.96875 L 20.390625 16.546875 L 16.640625 13.5 L 25.875 -13.078125 L 25.75 -13.15625 L 16.359375 -0.484375 L 12.8125 3.890625 L 15.328125 6.890625 L 12.609375 10.234375 L 1.0625 0.859375 L 3.78125 -2.484375 L 7.234375 -0.640625 L 23.453125 -20.625 L 20.9375 -23.640625 L 23.671875 -27 L 26.65625 -24.578125 L 33.9375 -18.65625 L 24.390625 7.625 L 24.484375 7.71875 L 48.3125 -7 L 58.609375 1.34375 L 55.875 4.703125 L 52.421875 2.875 L 36.203125 22.859375 L 38.71875 25.859375 L 36 29.203125 L 24.453125 19.84375 L 27.171875 16.5 L 30.609375 18.328125 L 34.15625 13.953125 Z M 44.6875 2.078125 "/></g></g></g><g fill="#000000" fill-opacity="1"><g transform="translate(284.413513, 111.671514)"><g><path d="M 25.953125 13.296875 L 19.84375 2.796875 L 10.984375 7.953125 L 16.8125 17.96875 L 20.6875 16.0625 L 23.4375 20.796875 L 14.953125 25.734375 L 0.6875 1.1875 L 4.421875 -0.984375 L 6.96875 1.96875 L 29.234375 -10.96875 L 27.96875 -14.671875 L 31.703125 -16.84375 L 33.625 -13.53125 L 45.953125 7.65625 L 37.453125 12.59375 L 34.671875 7.828125 L 38.21875 5.40625 L 32.4375 -4.515625 L 24.640625 0.015625 L 30.75 10.515625 Z M 25.953125 13.296875 "/></g></g></g><g fill="#000000" fill-opacity="1"><g transform="translate(302.416365, 146.719611)"><g/></g></g><g fill="#000000" fill-opacity="1"><g transform="translate(307.646164, 166.957897)"><g/></g></g><g fill="#000000" fill-opacity="1"><g transform="translate(309.392187, 187.787928)"><g/></g></g><g fill="#000000" fill-opacity="1"><g transform="translate(307.604494, 208.614416)"><g/></g></g><g fill="#000000" fill-opacity="1"><g transform="translate(302.334228, 228.842217)"><g/></g></g><g fill="#000000" fill-opacity="1"><g transform="translate(293.73195, 247.893184)"><g/></g></g><g fill="#000000" fill-opacity="1"><g transform="translate(283.657633, 264.809253)"><g><path d="M 1.15625 48.703125 L -5.46875 41.828125 L -1.5 38 L 1.5 40.6875 L 6.25 36.109375 L -11.296875 17.90625 L -14.5625 20.03125 L -17.5625 16.921875 L -6.84375 6.609375 L -3.84375 9.71875 L -6.125 12.90625 L 11.421875 31.109375 L 16.171875 26.546875 L 13.59375 23.453125 L 17.5625 19.640625 L 24.1875 26.515625 Z M 1.15625 48.703125 "/></g></g></g><g fill="#000000" fill-opacity="1"><g transform="translate(254.485543, 291.79626)"><g><path d="M -23.40625 30.546875 C -25.644531 25.785156 -26.132812 21.210938 -24.875 16.828125 C -23.613281 12.441406 -20.78125 9.210938 -16.375 7.140625 C -11.988281 5.078125 -7.71875 4.960938 -3.5625 6.796875 C 0.59375 8.628906 3.789062 11.925781 6.03125 16.6875 L 6.265625 17.1875 C 8.484375 21.90625 8.976562 26.457031 7.75 30.84375 C 6.53125 35.226562 3.734375 38.453125 -0.640625 40.515625 C -5.046875 42.585938 -9.347656 42.707031 -13.546875 40.875 C -17.742188 39.039062 -20.953125 35.765625 -23.171875 31.046875 Z M -16.65625 28.03125 C -15.070312 31.382812 -13.085938 33.78125 -10.703125 35.21875 C -8.328125 36.65625 -5.769531 36.726562 -3.03125 35.4375 C -0.300781 34.15625 1.242188 32.15625 1.609375 29.4375 C 1.984375 26.71875 1.375 23.671875 -0.21875 20.296875 L -0.46875 19.75 C -2.082031 16.332031 -4.0625 13.898438 -6.40625 12.453125 C -8.757812 11.003906 -11.289062 10.921875 -14 12.203125 C -16.75 13.492188 -18.320312 15.507812 -18.71875 18.25 C -19.125 20.988281 -18.519531 24.066406 -16.90625 27.484375 Z M -16.65625 28.03125 "/></g></g></g><g fill="#000000" fill-opacity="1"><g transform="translate(195.775913, 311.948549)"><g><path d="M -16.265625 30.65625 L -13.328125 30.40625 L -18.203125 18.3125 L -18.34375 18.3125 L -24.59375 29.75 L -21.703125 30.34375 L -21.953125 34.65625 L -35.5 33.875 L -35.25 29.5625 L -32.1875 29.234375 L -21.375 11.40625 L -20.9375 3.828125 L -24.71875 2.890625 L -24.46875 -1.421875 L -9.640625 -0.5625 L -9.890625 3.75 L -13.78125 4.25 L -14.234375 12.1875 L -5.71875 30.765625 L -2.71875 31.453125 L -2.96875 35.765625 L -16.515625 34.96875 Z M -16.265625 30.65625 "/></g></g></g><g fill="#000000" fill-opacity="1"><g transform="translate(155.679567, 308.764097)"><g><path d="M -38.328125 3.46875 C -36.335938 -1.394531 -33.300781 -4.847656 -29.21875 -6.890625 C -25.144531 -8.941406 -20.859375 -9.050781 -16.359375 -7.21875 C -11.867188 -5.394531 -8.890625 -2.332031 -7.421875 1.96875 C -5.953125 6.28125 -6.210938 10.867188 -8.203125 15.734375 L -8.40625 16.25 C -10.375 21.082031 -13.382812 24.535156 -17.4375 26.609375 C -21.5 28.679688 -25.773438 28.800781 -30.265625 26.96875 C -34.765625 25.132812 -37.757812 22.050781 -39.25 17.71875 C -40.738281 13.394531 -40.5 8.816406 -38.53125 3.984375 Z M -31.90625 6.734375 C -33.300781 10.160156 -33.71875 13.238281 -33.15625 15.96875 C -32.601562 18.695312 -30.929688 20.628906 -28.140625 21.765625 C -25.335938 22.910156 -22.8125 22.695312 -20.5625 21.125 C -18.3125 19.550781 -16.484375 17.035156 -15.078125 13.578125 L -14.859375 13.015625 C -13.429688 9.515625 -12.976562 6.410156 -13.5 3.703125 C -14.03125 1.003906 -15.6875 -0.90625 -18.46875 -2.03125 C -21.28125 -3.175781 -23.828125 -2.96875 -26.109375 -1.40625 C -28.398438 0.144531 -30.257812 2.671875 -31.6875 6.171875 Z M -31.90625 6.734375 "/></g></g></g><g fill="#000000" fill-opacity="1"><g transform="translate(117.753994, 292.51047)"><g><path d="M -35.703125 16.234375 L -32.8125 13 L -29.4375 15.015625 L -16.984375 1.046875 C -15.410156 -0.722656 -14.703125 -2.46875 -14.859375 -4.1875 C -15.023438 -5.914062 -15.9375 -7.519531 -17.59375 -9 C -19.269531 -10.5 -20.972656 -11.238281 -22.703125 -11.21875 C -24.441406 -11.195312 -26.109375 -10.296875 -27.703125 -8.515625 L -40.15625 5.453125 L -37.8125 8.53125 L -40.703125 11.765625 L -51.796875 1.875 L -48.90625 -1.359375 L -45.515625 0.65625 L -33.0625 -13.3125 C -30.375 -16.320312 -27.3125 -17.757812 -23.875 -17.625 C -20.445312 -17.488281 -17.128906 -15.988281 -13.921875 -13.125 C -10.722656 -10.269531 -8.863281 -7.148438 -8.34375 -3.765625 C -7.832031 -0.378906 -8.921875 2.816406 -11.609375 5.828125 L -24.0625 19.796875 L -21.71875 22.890625 L -24.609375 26.125 L -27.453125 23.578125 L -32.828125 18.796875 Z M -35.703125 16.234375 "/></g></g></g><g fill="#000000" fill-opacity="1"><g transform="translate(86.021498, 260.772266)"><g/></g></g><g fill="#000000" fill-opacity="1"><g transform="translate(75.131662, 242.929857)"><g/></g></g><g fill="#000000" fill-opacity="1"><g transform="translate(67.402911, 223.508087)"><g/></g></g><g clip-path="url(#73db572843)"><path fill="#c6302c" d="M 49.570312 167.003906 C 37.753906 169.320312 37.554688 183.828125 48.601562 187.40625 C 37.554688 190.984375 37.753906 205.492188 49.570312 207.804688 C 60.292969 209.90625 77.207031 187.40625 77.207031 187.40625 C 77.207031 187.40625 60.292969 164.90625 49.570312 167.003906 Z M 49.570312 167.003906 " fill-opacity="1" fill-rule="nonzero"/></g><g clip-path="url(#ade5a95a30)"><g clip-path="url(#8ebdcb5285)"><g clip-path="url(#d1ab6a0424)"><g clip-path="url(#2d785dc021)"><path fill="#c6302c" d="M 325.386719 208.257812 C 337.148438 205.671875 337.007812 191.164062 325.882812 187.839844 C 336.84375 184.007812 336.308594 169.507812 324.441406 167.46875 C 313.675781 165.617188 297.285156 188.503906 297.285156 188.503906 C 297.285156 188.503906 314.71875 210.605469 325.386719 208.257812 Z M 325.386719 208.257812 " fill-opacity="1" fill-rule="nonzero"/></g></g></g></g></svg>